<?xml version="1.0" standalone="no"?>
<!DOCTYPE svg PUBLIC "-//W3C//DTD SVG 20010904//EN"
 "http://www.w3.org/TR/2001/REC-SVG-20010904/DTD/svg10.dtd">
<svg version="1.0" xmlns="http://www.w3.org/2000/svg"
 width="352.000000pt" height="176.000000pt" viewBox="0 0 352.000000 176.000000"
 preserveAspectRatio="xMidYMid meet">

<g transform="translate(0.000000,176.000000) scale(0.100000,-0.100000)"
fill="#000000" stroke="none">
<path d="M333 1745 c-162 -44 -276 -159 -318 -322 -12 -47 -15 -144 -15 -535
0 -315 4 -495 11 -530 35 -163 169 -300 330 -337 29 -7 529 -11 1421 -11 1320
0 1379 1 1437 19 125 39 218 120 274 239 l32 67 0 551 0 550 -37 75 c-58 118
-159 201 -283 233 -52 14 -222 16 -1430 15 -1146 0 -1379 -3 -1422 -14z m2856
-64 c113 -35 209 -129 246 -240 13 -41 15 -117 13 -572 l-3 -524 -27 -57 c-34
-74 -107 -146 -183 -184 l-60 -29 -1074 -3 c-1045 -2 -1074 -2 -1058 16 32 35
11 112 -29 112 -8 0 -16 10 -19 23 -3 12 -10 44 -15 72 -14 62 -25 75 -64 74
l-31 -1 32 -9 c21 -6 35 -17 38 -32 26 -114 26 -105 -15 -149 -32 -33 -45 -39
-72 -36 -31 3 -34 6 -48 63 -13 54 -18 61 -47 69 -32 10 -32 11 -35 75 l-3 66
-80 0 -80 0 0 -75 0 -75 35 -5 c33 -5 34 -6 14 -17 -19 -11 -54 -78 -54 -103
0 -6 15 -10 33 -10 25 0 36 -6 50 -31 l17 -31 -162 4 c-152 3 -167 5 -220 30
-80 37 -152 107 -191 187 l-32 66 0 530 0 530 27 57 c48 103 144 187 247 214
35 10 364 13 1418 13 1322 1 1373 0 1432 -18z m-2469 -1341 l0 -60 -65 0 -65
0 0 60 0 60 65 0 65 0 0 -60z m68 -92 c5 -7 13 -34 17 -60 l7 -46 -106 0 c-58
-1 -108 4 -112 9 -10 17 31 73 66 91 41 21 113 24 128 6z m234 -70 c28 -22 31
-55 9 -77 -37 -37 -91 -20 -91 29 0 50 45 76 82 48z m-262 -63 c0 -9 -11 -20
-25 -27 -19 -9 -29 -8 -50 6 -38 25 -30 36 25 36 38 0 50 -4 50 -15z m160 3
c0 -6 7 -20 17 -30 15 -17 12 -18 -88 -18 -57 0 -99 4 -93 8 6 4 16 17 23 30
10 19 19 22 76 22 43 0 65 -4 65 -12z"/>
<path d="M745 1168 c-3 -7 -4 -135 -3 -283 l3 -270 45 0 45 0 3 128 3 127 24
0 25 0 0 -131 0 -130 43 3 42 3 0 280 0 280 -42 3 -42 3 -3 -113 c-3 -111 -3
-113 -26 -113 -24 0 -24 2 -25 110 l-2 110 -43 3 c-28 2 -44 -1 -47 -10z"/>
<path d="M1470 1036 l0 -146 50 0 50 0 0 50 0 50 35 0 c34 0 35 1 35 40 0 39
-1 40 -34 40 l-35 0 -3 53 -3 52 -47 3 -48 3 0 -145z"/>
<path d="M1821 1170 c-85 -21 -115 -71 -116 -190 0 -98 18 -141 73 -173 45
-27 149 -27 194 0 55 32 73 75 73 173 0 96 -19 142 -70 171 -37 22 -109 30
-154 19z m112 -102 c25 -30 24 -147 -2 -179 -26 -32 -86 -32 -112 0 -22 26
-27 138 -8 172 22 42 89 46 122 7z"/>
<path d="M2120 895 l0 -285 50 0 50 0 0 285 0 285 -50 0 -50 0 0 -285z"/>
<path d="M2950 966 l0 -216 50 0 50 0 -2 213 -3 212 -47 3 -48 3 0 -215z"/>
<path d="M440 895 l0 -275 125 0 125 0 0 275 0 275 -45 0 -45 0 0 -111 0 -110
-32 3 -33 3 -3 108 -3 107 -44 0 -45 0 0 -275z m160 -105 l0 -90 -35 0 -35 0
0 90 0 90 35 0 35 0 0 -90z"/>
<path d="M1070 1030 l0 -140 119 0 c65 0 139 3 165 6 44 7 46 8 46 41 l0 34
-115 -7 -115 -7 0 67 0 66 110 0 110 0 0 40 0 40 -160 0 -160 0 0 -140z"/>
<path d="M2640 1122 c0 -41 -10 -65 -65 -162 -36 -63 -65 -115 -65 -117 0 -2
24 -3 54 -3 l55 0 33 60 c18 33 35 60 38 60 4 0 21 -27 40 -60 l34 -60 53 0
c29 0 53 2 53 5 0 3 -29 56 -65 117 -55 96 -65 120 -65 160 l0 48 -50 0 -50 0
0 -48z"/>
<path d="M1093 843 c-3 -6 -3 -20 -1 -30 3 -16 19 -18 191 -21 247 -3 247 -21
0 -24 l-188 -3 0 -75 0 -75 85 -3 c47 -2 154 0 238 3 l152 7 0 29 0 29 -185 0
c-114 0 -185 4 -185 10 0 6 72 11 183 12 l182 3 3 72 3 72 -237 3 c-176 2
-238 0 -241 -9z"/>
<path d="M2550 710 c0 -72 3 -92 15 -97 9 -3 121 -2 250 2 l235 7 0 40 0 41
-197 -4 -198 -4 -3 53 -3 52 -50 0 -49 0 0 -90z"/>
<path d="M1680 678 l0 -43 195 0 195 0 0 43 0 42 -195 0 -195 0 0 -42z"/>
<path d="M400 330 c0 -6 27 -10 60 -10 33 0 60 4 60 10 0 6 -27 10 -60 10 -33
0 -60 -4 -60 -10z"/>
<path d="M463 273 c15 -2 37 -2 50 0 12 2 0 4 -28 4 -27 0 -38 -2 -22 -4z"/>
<path d="M480 220 c0 -5 9 -10 20 -10 11 0 20 5 20 10 0 6 -9 10 -20 10 -11 0
-20 -4 -20 -10z"/>
</g>
</svg>
